nColumns=55
nRows=36
DataType=double
version=3
OpenSimVersion=4.1
endheader
time	ground_force_1_vx	ground_force_1_vy	ground_force_1_vz	ground_force_1_px	ground_force_1_py	ground_force_1_pz	ground_force_1_mx	ground_force_1_my	ground_force_1_mz	ground_force_2_vx	ground_force_2_vy	ground_force_2_vz	ground_force_2_px	ground_force_2_py	ground_force_2_pz	ground_force_2_mx	ground_force_2_my	ground_force_2_mz	ground_force_3_vx	ground_force_3_vy	ground_force_3_vz	ground_force_3_px	ground_force_3_py	ground_force_3_pz	ground_force_3_mx	ground_force_3_my	ground_force_3_mz	ground_force_4_vx	ground_force_4_vy	ground_force_4_vz	ground_force_4_px	ground_force_4_py	ground_force_4_pz	ground_force_4_mx	ground_force_4_my	ground_force_4_mz	ground_force_5_vx	ground_force_5_vy	ground_force_5_vz	ground_force_5_px	ground_force_5_py	ground_force_5_pz	ground_force_5_mx	ground_force_5_my	ground_force_5_mz	ground_force_6_vx	ground_force_6_vy	ground_force_6_vz	ground_force_6_px	ground_force_6_py	ground_force_6_pz	ground_force_6_mx	ground_force_6_my	ground_force_6_mz
3.835	13.623	339.66	-26.492	0.635996	0	-0.123597	41.4448	-18.016	-164.446	21.5735	417.12	-29.5634	0.457448	0	-0.154679	64.4743	0.200497	190.677	0	0	0	0	0	0	0	0	0	0	0	0	0	0	0	0	0	0	0	0	0	0	0	0	0	0	0	0	0	0	0	0	0	0	0	0
3.84	13.8184	341.147	-26.5528	0.635947	0	-0.12337	42.1164	-18.2315	-165.062	21.6636	414.871	-30.5364	0.457507	0	-0.154746	64.3101	0.299953	189.832	0	0	0	0	0	0	0	0	0	0	0	0	0	0	0	0	0	0	0	0	0	0	0	0	0	0	0	0	0	0	0	0	0	0	0	0
3.845	13.1057	342.501	-26.7129	0.635874	0	-0.122921	42.77	-17.3711	-165.648	21.8132	413.128	-30.3418	0.457567	0	-0.154768	63.8441	-0.0878771	188.984	0	0	0	0	0	0	0	0	0	0	0	0	0	0	0	0	0	0	0	0	0	0	0	0	0	0	0	0	0	0	0	0	0	0	0	0
3.85	11.3184	344.236	-26.6473	0.63578	0	-0.12228	43.9818	-15.4177	-166.689	22.1481	411.449	-31.1941	0.45763	0	-0.154731	63.936	0.114912	188.326	0	0	0	0	0	0	0	0	0	0	0	0	0	0	0	0	0	0	0	0	0	0	0	0	0	0	0	0	0	0	0	0	0	0	0	0
3.855	11.1166	344.665	-27.3833	0.635669	0	-0.121514	42.1845	-15.515	-167.039	22.2969	409.976	-31.699	0.457693	0	-0.154628	63.9155	0.604364	187.554	0	0	0	0	0	0	0	0	0	0	0	0	0	0	0	0	0	0	0	0	0	0	0	0	0	0	0	0	0	0	0	0	0	0	0	0
3.86	12.8329	345.58	-29.674	0.635547	0	-0.120715	41.0471	-18.3682	-167.71	21.9366	407.27	-32.6312	0.457757	0	-0.154469	61.97	1.50314	186.611	0	0	0	0	0	0	0	0	0	0	0	0	0	0	0	0	0	0	0	0	0	0	0	0	0	0	0	0	0	0	0	0	0	0	0	0
3.865	15.6512	346.452	-30.5318	0.635423	0	-0.119988	40.4644	-21.7516	-167.973	21.6172	406.621	-33.4974	0.457819	0	-0.154271	63.3238	1.75356	186.163	0	0	0	0	0	0	0	0	0	0	0	0	0	0	0	0	0	0	0	0	0	0	0	0	0	0	0	0	0	0	0	0	0	0	0	0
3.87	18.1106	347.98	-30.8024	0.635304	0	-0.119422	41.0226	-24.0786	-168.601	21.3963	404.785	-34.0685	0.457878	0	-0.154066	62.329	2.09871	185.129	0	0	0	0	0	0	0	0	0	0	0	0	0	0	0	0	0	0	0	0	0	0	0	0	0	0	0	0	0	0	0	0	0	0	0	0
3.875	18.2254	349.762	-30.5784	0.635199	0	-0.119079	41.0107	-24.4546	-169.353	22.1013	401.87	-35.1638	0.457934	0	-0.153888	61.7391	2.12575	184.186	0	0	0	0	0	0	0	0	0	0	0	0	0	0	0	0	0	0	0	0	0	0	0	0	0	0	0	0	0	0	0	0	0	0	0	0
3.88	15.1752	351.026	-31.3277	0.635114	0	-0.118981	41.4772	-21.8996	-170.409	22.792	400.353	-35.8416	0.457985	0	-0.153775	61.6091	2.30615	183.412	0	0	0	0	0	0	0	0	0	0	0	0	0	0	0	0	0	0	0	0	0	0	0	0	0	0	0	0	0	0	0	0	0	0	0	0
3.885	12.6802	353.921	-32.4555	0.635052	0	-0.119108	43.0188	-19.0296	-171.689	23.1127	398.338	-36.696	0.458028	0	-0.153759	61.032	2.77378	182.399	0	0	0	0	0	0	0	0	0	0	0	0	0	0	0	0	0	0	0	0	0	0	0	0	0	0	0	0	0	0	0	0	0	0	0	0
3.89	12.28	355.358	-33.7735	0.635018	0	-0.119414	42.463	-19.219	-172.531	22.7918	396.274	-37.4678	0.458061	0	-0.153863	61.0673	3.11805	181.513	0	0	0	0	0	0	0	0	0	0	0	0	0	0	0	0	0	0	0	0	0	0	0	0	0	0	0	0	0	0	0	0	0	0	0	0
3.895	13.8468	357.396	-34.4469	0.635014	0	-0.119834	43.3996	-21.8396	-173.248	22.5977	395.494	-38.5841	0.458083	0	-0.154097	60.8964	3.70156	181.132	0	0	0	0	0	0	0	0	0	0	0	0	0	0	0	0	0	0	0	0	0	0	0	0	0	0	0	0	0	0	0	0	0	0	0	0
3.9	15.874	358.524	-33.6087	0.63504	0	-0.120307	43.9557	-23.495	-173.739	23.0429	394.085	-40.1559	0.458089	0	-0.154457	61.0412	4.24351	180.462	0	0	0	0	0	0	0	0	0	0	0	0	0	0	0	0	0	0	0	0	0	0	0	0	0	0	0	0	0	0	0	0	0	0	0	0
3.905	15.7275	358.969	-33.8551	0.635098	0	-0.120782	43.1085	-23.9508	-174.116	23.6465	392.375	-40.9293	0.458078	0	-0.154928	60.4676	4.65564	179.787	0	0	0	0	0	0	0	0	0	0	0	0	0	0	0	0	0	0	0	0	0	0	0	0	0	0	0	0	0	0	0	0	0	0	0	0
3.91	13.9743	360.622	-35.1135	0.635187	0	-0.121229	43.4581	-22.8706	-174.892	24.6882	391.577	-41.276	0.458045	0	-0.155485	60.7213	4.30376	179.401	0	0	0	0	0	0	0	0	0	0	0	0	0	0	0	0	0	0	0	0	0	0	0	0	0	0	0	0	0	0	0	0	0	0	0	0
3.915	11.8917	362.162	-36.8369	0.635306	0	-0.121635	43.862	-21.4823	-175.654	25.031	390.389	-42.3435	0.457988	0	-0.156104	61.0692	4.35363	178.794	0	0	0	0	0	0	0	0	0	0	0	0	0	0	0	0	0	0	0	0	0	0	0	0	0	0	0	0	0	0	0	0	0	0	0	0
3.92	11.0105	363.334	-37.4226	0.635453	0	-0.122003	43.9726	-21.615	-176.134	25.0723	389.906	-42.7387	0.457906	0	-0.156763	61.1677	4.84029	178.526	0	0	0	0	0	0	0	0	0	0	0	0	0	0	0	0	0	0	0	0	0	0	0	0	0	0	0	0	0	0	0	0	0	0	0	0
3.925	11.4258	364.093	-37.1835	0.635624	0	-0.122345	44.9384	-23.2452	-176.427	25.7373	389.256	-43.9899	0.457797	0	-0.157455	61.8015	5.58509	178.195	0	0	0	0	0	0	0	0	0	0	0	0	0	0	0	0	0	0	0	0	0	0	0	0	0	0	0	0	0	0	0	0	0	0	0	0
3.93	12.7435	363.251	-36.5239	0.635815	0	-0.122674	43.8843	-24.2183	-175.811	26.1528	388.778	-44.4415	0.457661	0	-0.158187	61.5269	6.03971	177.914	0	0	0	0	0	0	0	0	0	0	0	0	0	0	0	0	0	0	0	0	0	0	0	0	0	0	0	0	0	0	0	0	0	0	0	0
3.935	12.2737	362.966	-36.5065	0.63602	0	-0.123004	44.4403	-24.0794	-175.824	26.882	387.539	-45.3152	0.457498	0	-0.158988	61.4286	6.15765	177.424	0	0	0	0	0	0	0	0	0	0	0	0	0	0	0	0	0	0	0	0	0	0	0	0	0	0	0	0	0	0	0	0	0	0	0	0
3.94	10.8454	362.975	-37.4774	0.636235	0	-0.123341	45.3552	-23.6801	-175.632	27.8522	387.134	-46.0453	0.457308	0	-0.159907	61.822	5.6336	176.974	0	0	0	0	0	0	0	0	0	0	0	0	0	0	0	0	0	0	0	0	0	0	0	0	0	0	0	0	0	0	0	0	0	0	0	0
3.945	9.11179	361.986	-38.0629	0.636457	0	-0.123692	45.2464	-22.4848	-174.913	28.7847	386.161	-46.8965	0.45709	0	-0.161007	62.1719	5.59775	176.52	0	0	0	0	0	0	0	0	0	0	0	0	0	0	0	0	0	0	0	0	0	0	0	0	0	0	0	0	0	0	0	0	0	0	0	0
3.95	7.93184	360.869	-37.5994	0.636686	0	-0.124061	44.4263	-21.5846	-174.54	29.415	383.973	-47.0986	0.456841	0	-0.162367	62.0841	6.05163	175.438	0	0	0	0	0	0	0	0	0	0	0	0	0	0	0	0	0	0	0	0	0	0	0	0	0	0	0	0	0	0	0	0	0	0	0	0
3.955	8.80295	359.873	-37.8553	0.636926	0	-0.124457	44.8586	-22.9675	-173.967	29.559	382.141	-46.9856	0.456555	0	-0.164072	62.6652	6.59893	174.38	0	0	0	0	0	0	0	0	0	0	0	0	0	0	0	0	0	0	0	0	0	0	0	0	0	0	0	0	0	0	0	0	0	0	0	0
3.96	9.98726	359.889	-37.3013	0.637183	0	-0.124892	44.5896	-24.01	-173.532	29.7006	378.431	-47.6018	0.456221	0	-0.166215	63.5391	7.01404	172.476	0	0	0	0	0	0	0	0	0	0	0	0	0	0	0	0	0	0	0	0	0	0	0	0	0	0	0	0	0	0	0	0	0	0	0	0
3.965	9.60209	358.924	-38.2975	0.637466	0	-0.12539	44.3619	-24.3734	-173.314	30.1122	372.821	-47.5099	0.455829	0	-0.168891	62.8101	6.44526	169.989	0	0	0	0	0	0	0	0	0	0	0	0	0	0	0	0	0	0	0	0	0	0	0	0	0	0	0	0	0	0	0	0	0	0	0	0
3.97	8.26185	359.374	-38.4162	0.637783	0	-0.12598	45.7512	-23.7627	-173.369	31.6862	366.889	-46.78	0.455364	0	-0.172199	62.3203	5.27394	167.295	0	0	0	0	0	0	0	0	0	0	0	0	0	0	0	0	0	0	0	0	0	0	0	0	0	0	0	0	0	0	0	0	0	0	0	0
3.975	6.69403	359.534	-38.4282	0.638144	0	-0.1267	45.9413	-22.4895	-173.313	32.5284	361.59	-46.0778	0.454809	0	-0.176242	64.1297	4.77935	164.38	0	0	0	0	0	0	0	0	0	0	0	0	0	0	0	0	0	0	0	0	0	0	0	0	0	0	0	0	0	0	0	0	0	0	0	0
3.98	6.51831	360.254	-38.8854	0.638552	0	-0.127594	46.5839	-21.8782	-173.652	32.3282	351.723	-46.8289	0.454146	0	-0.181127	63.5217	5.30761	159.814	0	0	0	0	0	0	0	0	0	0	0	0	0	0	0	0	0	0	0	0	0	0	0	0	0	0	0	0	0	0	0	0	0	0	0	0
3.985	7.63123	362.913	-38.7318	0.639004	0	-0.128697	46.8672	-23.353	-174.367	32.3776	341.016	-45.3271	0.45336	0	-0.186964	64.0845	4.71805	154.504	0	0	0	0	0	0	0	0	0	0	0	0	0	0	0	0	0	0	0	0	0	0	0	0	0	0	0	0	0	0	0	0	0	0	0	0
3.99	8.02036	365.916	-40.0543	0.639491	0	-0.130029	47.7543	-24.9254	-175.738	32.9114	328.75	-41.6919	0.452436	0	-0.193862	64.0042	3.00998	148.642	0	0	0	0	0	0	0	0	0	0	0	0	0	0	0	0	0	0	0	0	0	0	0	0	0	0	0	0	0	0	0	0	0	0	0	0
3.995	6.97935	371.375	-39.3365	0.639997	0	-0.131582	47.6453	-24.4402	-178.429	33.9347	315.906	-37.0263	0.451361	0	-0.20192	63.5434	-0.00492863	142.796	0	0	0	0	0	0	0	0	0	0	0	0	0	0	0	0	0	0	0	0	0	0	0	0	0	0	0	0	0	0	0	0	0	0	0	0
4	5.49638	381.814	-40.0674	0.640499	0	-0.133308	51.0171	-23.6952	-183.22	33.9131	305.137	-32.9201	0.450129	0	-0.211205	64.4668	-2.23684	137.412	0	0	0	0	0	0	0	0	0	0	0	0	0	0	0	0	0	0	0	0	0	0	0	0	0	0	0	0	0	0	0	0	0	0	0	0
4.005	5.36374	392.927	-42.3583	0.640971	0	-0.135121	53.5184	-24.2865	-188.251	33.1697	295.778	-28.8138	0.44874	0	-0.221729	66.0009	-3.9366	132.709	0	0	0	0	0	0	0	0	0	0	0	0	0	0	0	0	0	0	0	0	0	0	0	0	0	0	0	0	0	0	0	0	0	0	0	0
4.01	5.32473	402.411	-45.0575	0.641389	0	-0.1369	54.9316	-25.7831	-192.629	31.675	285.672	-25.8744	0.447208	0	-0.233408	66.2744	-4.98447	127.612	0	0	0	0	0	0	0	0	0	0	0	0	0	0	0	0	0	0	0	0	0	0	0	0	0	0	0	0	0	0	0	0	0	0	0	0
